<svg width="38" height="39" viewBox="0 0 38 39" fill="none" xmlns="http://www.w3.org/2000/svg">
<path d="M18.2344 9.6347V5.31156C18.2344 2.37623 20.6799 0 23.7009 0H28.1501C31.0991 0 33.483 2.31632 33.483 5.18177V13.8181C33.483 14.3672 33.0206 14.8065 32.4658 14.8065H23.5776C20.6285 14.8065 18.2447 12.4902 18.2447 9.62472L18.2344 9.6347Z" fill="#E41B47"/>
<path d="M28.161 8.3967C27.7706 9.32523 26.8355 9.98418 25.736 9.98418C24.6366 9.98418 23.6912 9.32523 23.3008 8.38672" stroke="white" stroke-width="1.47267" stroke-miterlimit="10"/>
<path d="M23.2808 5.81077C23.7972 5.81077 24.2158 5.40399 24.2158 4.90221C24.2158 4.40043 23.7972 3.99365 23.2808 3.99365C22.7643 3.99365 22.3457 4.40043 22.3457 4.90221C22.3457 5.40399 22.7643 5.81077 23.2808 5.81077Z" fill="white"/>
<path d="M27.9058 5.81077C28.4222 5.81077 28.8408 5.40399 28.8408 4.90221C28.8408 4.40043 28.4222 3.99365 27.9058 3.99365C27.3893 3.99365 26.9707 4.40043 26.9707 4.90221C26.9707 5.40399 27.3893 5.81077 27.9058 5.81077Z" fill="white"/>
<path d="M14.8444 30.3121H4.06558C3.37714 30.3121 2.82227 29.7729 2.82227 29.104V18.6306C2.82227 15.1561 5.71992 12.3506 9.28547 12.3506H14.68C18.3381 12.3506 21.3076 15.236 21.3076 18.7904V24.032C21.3076 27.5065 18.41 30.3121 14.8444 30.3121Z" fill="#6B77E9"/>
<path d="M20.5467 38.0196H33.6684C34.5007 38.0196 35.1788 37.3606 35.1788 36.5519V23.8022C35.1788 19.5789 31.6544 16.1543 27.3079 16.1543H20.7419C16.2824 16.1543 12.6758 19.6687 12.6758 23.9919V30.3717C12.6758 34.595 16.2002 38.0196 20.5467 38.0196Z" fill="#7F8AF0"/>
<path d="M21.3071 18.7901V24.0318C21.3071 27.4963 18.4094 30.3118 14.8439 30.3118H12.6758V23.9919C12.6758 19.6787 16.2824 16.1643 20.7214 16.1543C21.1016 16.953 21.3071 17.8516 21.3071 18.7901Z" fill="#3341BB"/>
<path d="M29.2086 28.7144H20.043" stroke="white" stroke-width="1.90099" stroke-miterlimit="10"/>
<path d="M17.0792 23.9751H7.57422" stroke="white" stroke-width="1.90099" stroke-miterlimit="10"/>
<path d="M12.2442 19.7285H7.79492" stroke="white" stroke-width="1.90099" stroke-miterlimit="10"/>
<path d="M24.3789 23.9751H19.9297" stroke="white" stroke-width="1.90099" stroke-miterlimit="10"/>
</svg>
