<svg width="96" height="38" viewBox="0 0 96 38" fill="none" xmlns="http://www.w3.org/2000/svg">
<path d="M21.2878 9.3874C21.2878 9.15585 21.1995 8.93295 21.0406 8.76415L16.1907 3.61109C16.0188 3.42858 15.7791 3.32495 15.5285 3.32495H15.2253V9.69061H21.2878V9.3874Z" fill="#6B77E9"/>
<path d="M20.3696 21.2093C20.681 21.2093 20.9878 21.2382 21.2879 21.292V11.5094H14.3161C13.8138 11.5094 13.4067 11.1023 13.4067 10.6V3.32495H3.40352C2.90122 3.32495 2.49414 3.73203 2.49414 4.23433V27.575C2.49414 28.0773 2.90122 28.4844 3.40352 28.4844H11.052C11.2095 28.267 11.3857 28.0588 11.5814 27.863L16.7259 22.7189C17.6992 21.7455 18.9933 21.2093 20.3696 21.2093ZM10.0724 13.9343H10.9818V13.0249C10.9818 12.5229 11.3888 12.1155 11.8911 12.1155C12.3934 12.1155 12.8005 12.5229 12.8005 13.0249V13.9343H13.7099C14.212 13.9343 14.6193 14.3416 14.6193 14.8437C14.6193 15.346 14.212 15.7531 13.7099 15.7531H12.8005V16.6624C12.8005 17.1647 12.3934 17.5718 11.8911 17.5718C11.3888 17.5718 10.9818 17.1647 10.9818 16.6624V15.7531H10.0724C9.57008 15.7531 9.163 15.346 9.163 14.8437C9.163 14.3416 9.57008 13.9343 10.0724 13.9343ZM7.04104 19.3906H16.741C17.2433 19.3906 17.6504 19.7979 17.6504 20.2999C17.6504 20.8022 17.2433 21.2093 16.741 21.2093H7.04104C6.53898 21.2093 6.13166 20.8022 6.13166 20.2999C6.13166 19.7979 6.53898 19.3906 7.04104 19.3906ZM13.1035 24.8468H7.04104C6.53898 24.8468 6.13166 24.4398 6.13166 23.9375C6.13166 23.4352 6.53898 23.0281 7.04104 23.0281H13.1035C13.6058 23.0281 14.0129 23.4352 14.0129 23.9375C14.0129 24.4398 13.6058 24.8468 13.1035 24.8468Z" fill="#6B77E9"/>
<path d="M12.8677 29.1489C11.5676 30.449 11.5676 32.5642 12.8677 33.8643C13.4974 34.4943 14.3349 34.841 15.2255 34.841C16.1161 34.841 16.9534 34.4943 17.5834 33.8643L19.5122 31.9354L14.7968 27.2197L12.8677 29.1489Z" fill="#E41B47"/>
<path d="M22.7271 24.0053C22.0974 23.3755 21.2599 23.0286 20.3692 23.0286C19.4786 23.0286 18.6414 23.3755 18.0116 24.0053L16.0825 25.9344L20.798 30.6498L22.7271 28.7207C24.0272 27.4206 24.0272 25.3054 22.7271 24.0053Z" fill="#E41B47"/>
<path d="M26.6096 15.7747L32.5041 2.67575H34.8993L40.8125 15.7747H38.2676L33.1964 3.96693H34.1695L29.1171 15.7747H26.6096ZM29.3229 12.7432L29.9779 10.8345H37.0513L37.7062 12.7432H29.3229ZM47.9378 15.9056C47.127 15.9056 46.3847 15.7185 45.711 15.3443C45.0498 14.97 44.5197 14.4086 44.1204 13.6601C43.7337 12.8991 43.5404 11.9385 43.5404 10.7784C43.5404 9.6057 43.7275 8.64511 44.1017 7.8966C44.4885 7.14809 45.0124 6.59295 45.6736 6.23117C46.3348 5.85691 47.0895 5.66979 47.9378 5.66979C48.9234 5.66979 49.7904 5.88186 50.5389 6.30602C51.2999 6.73017 51.8987 7.32274 52.3353 8.08373C52.7844 8.84471 53.009 9.74292 53.009 10.7784C53.009 11.8138 52.7844 12.7182 52.3353 13.4917C51.8987 14.2527 51.2999 14.8453 50.5389 15.2694C49.7904 15.6936 48.9234 15.9056 47.9378 15.9056ZM42.3989 19.4049V5.78206H44.6257V8.13987L44.5508 10.7971L44.738 13.4543V19.4049H42.3989ZM47.6759 13.9034C48.2372 13.9034 48.7363 13.7786 49.1729 13.5291C49.622 13.2796 49.9775 12.9178 50.2395 12.4438C50.5015 11.9697 50.6325 11.4146 50.6325 10.7784C50.6325 10.1297 50.5015 9.57451 50.2395 9.11293C49.9775 8.63887 49.622 8.27709 49.1729 8.02759C48.7363 7.77809 48.2372 7.65334 47.6759 7.65334C47.1145 7.65334 46.6092 7.77809 46.1601 8.02759C45.711 8.27709 45.3555 8.63887 45.0935 9.11293C44.8315 9.57451 44.7005 10.1297 44.7005 10.7784C44.7005 11.4146 44.8315 11.9697 45.0935 12.4438C45.3555 12.9178 45.711 13.2796 46.1601 13.5291C46.6092 13.7786 47.1145 13.9034 47.6759 13.9034ZM60.0693 15.9056C58.959 15.9056 57.9859 15.6873 57.1501 15.2507C56.3267 14.8016 55.6842 14.1903 55.2227 13.4169C54.7736 12.6434 54.549 11.7639 54.549 10.7784C54.549 9.78035 54.7673 8.90085 55.204 8.13987C55.6531 7.36641 56.2643 6.76136 57.0378 6.32473C57.8237 5.8881 58.7157 5.66979 59.7137 5.66979C60.6868 5.66979 61.5538 5.88186 62.3148 6.30602C63.0758 6.73017 63.6746 7.32898 64.1112 8.10244C64.5478 8.8759 64.7662 9.78659 64.7662 10.8345C64.7662 10.9343 64.7599 11.0466 64.7474 11.1713C64.7474 11.2961 64.7412 11.4146 64.7287 11.5269H56.4016V9.97371H63.4937L62.5768 10.4602C62.5892 9.88639 62.4707 9.38114 62.2212 8.94451C61.9717 8.50788 61.6287 8.16482 61.192 7.91531C60.7679 7.66581 60.2751 7.54106 59.7137 7.54106C59.1399 7.54106 58.6346 7.66581 58.198 7.91531C57.7738 8.16482 57.437 8.51412 57.1875 8.96323C56.9505 9.39986 56.832 9.91758 56.832 10.5164V10.8906C56.832 11.4894 56.9692 12.0196 57.2436 12.4812C57.5181 12.9428 57.9048 13.2983 58.4038 13.5478C58.9028 13.7973 59.4767 13.9221 60.1254 13.9221C60.6868 13.9221 61.192 13.8348 61.6411 13.6601C62.0902 13.4855 62.4894 13.211 62.8387 12.8368L64.0925 14.2776C63.6434 14.8016 63.0758 15.207 62.3896 15.494C61.716 15.7684 60.9425 15.9056 60.0693 15.9056ZM65.5179 15.7747L69.9154 10.0486L69.878 11.3023L65.6863 5.78206H68.2874L71.2253 9.71174H70.2335L73.1901 5.78206H75.7163L71.4873 11.3023L71.506 10.0486L75.8847 15.7747H73.2462L70.1586 11.6017L71.1317 11.7327L68.1002 15.7747H65.5179Z" fill="#3341BB"/>
<path d="M35.4311 35.5982C34.3005 35.5982 33.2595 35.412 32.3081 35.0398C31.3567 34.6675 30.5294 34.1504 29.8262 33.4886C29.123 32.8129 28.5783 32.027 28.1923 31.1308C27.8062 30.2207 27.6132 29.228 27.6132 28.1525C27.6132 27.077 27.8062 26.0911 28.1923 25.1949C28.5783 24.2849 29.123 23.4989 29.8262 22.8371C30.5294 22.1615 31.3567 21.6375 32.3081 21.2652C33.2595 20.8929 34.2936 20.7068 35.4105 20.7068C36.5411 20.7068 37.5752 20.8929 38.5128 21.2652C39.4642 21.6375 40.2915 22.1615 40.9947 22.8371C41.6979 23.4989 42.2426 24.2849 42.6286 25.1949C43.0147 26.0911 43.2077 27.077 43.2077 28.1525C43.2077 29.228 43.0147 30.2207 42.6286 31.1308C42.2426 32.0408 41.6979 32.8267 40.9947 33.4886C40.2915 34.1504 39.4642 34.6675 38.5128 35.0398C37.5752 35.412 36.548 35.5982 35.4311 35.5982ZM35.4105 33.2404C36.1412 33.2404 36.8169 33.1163 37.4373 32.8681C38.0578 32.6199 38.5956 32.2683 39.0506 31.8133C39.5056 31.3445 39.8572 30.8067 40.1054 30.2001C40.3674 29.5796 40.4983 28.8971 40.4983 28.1525C40.4983 27.4079 40.3674 26.7323 40.1054 26.1256C39.8572 25.5051 39.5056 24.9674 39.0506 24.5124C38.5956 24.0436 38.0578 23.6851 37.4373 23.4369C36.8169 23.1887 36.1412 23.0646 35.4105 23.0646C34.6797 23.0646 34.004 23.1887 33.3836 23.4369C32.7769 23.6851 32.2391 24.0436 31.7703 24.5124C31.3153 24.9674 30.9568 25.5051 30.6948 26.1256C30.4467 26.7323 30.3226 27.4079 30.3226 28.1525C30.3226 28.8833 30.4467 29.5589 30.6948 30.1794C30.9568 30.7998 31.3153 31.3445 31.7703 31.8133C32.2253 32.2683 32.7631 32.6199 33.3836 32.8681C34.004 33.1163 34.6797 33.2404 35.4105 33.2404ZM46.1754 35.3914V20.9136H52.132C53.4143 20.9136 54.5105 21.1204 55.4205 21.5341C56.3443 21.9477 57.0544 22.5406 57.5508 23.3128C58.0472 24.0849 58.2954 25.0019 58.2954 26.0636C58.2954 27.1253 58.0472 28.0422 57.5508 28.8143C57.0544 29.5865 56.3443 30.1794 55.4205 30.593C54.5105 31.0067 53.4143 31.2135 52.132 31.2135H47.6646L48.8642 29.9519V35.3914H46.1754ZM48.8642 30.2414L47.6646 28.9384H52.0079C53.1937 28.9384 54.083 28.6902 54.6759 28.1939C55.2826 27.6837 55.586 26.9736 55.586 26.0636C55.586 25.1397 55.2826 24.4296 54.6759 23.9333C54.083 23.4369 53.1937 23.1887 52.0079 23.1887H47.6646L48.8642 21.865V30.2414ZM67.1337 35.3914V20.9136H73.0903C74.3726 20.9136 75.4688 21.1204 76.3788 21.5341C77.3026 21.9477 78.0127 22.5406 78.5091 23.3128C79.0055 24.0849 79.2537 25.0019 79.2537 26.0636C79.2537 27.1253 79.0055 28.0422 78.5091 28.8143C78.0127 29.5727 77.3026 30.1587 76.3788 30.5723C75.4688 30.9722 74.3726 31.1721 73.0903 31.1721H68.6229L69.8225 29.9519V35.3914H67.1337ZM76.6063 35.3914L72.9455 30.138H75.8204L79.5019 35.3914H76.6063ZM69.8225 30.2414L68.6229 28.9591H72.9662C74.152 28.9591 75.0413 28.704 75.6342 28.1939C76.2409 27.6837 76.5443 26.9736 76.5443 26.0636C76.5443 25.1397 76.2409 24.4296 75.6342 23.9333C75.0413 23.4369 74.152 23.1887 72.9662 23.1887H68.6229L69.8225 21.865V30.2414ZM80.6215 35.3914L85.4819 29.0625L85.4406 30.4482L80.8077 24.3469H83.6825L86.9297 28.6902H85.8335L89.1014 24.3469H91.8935L87.2192 30.4482L87.2399 29.0625L92.0796 35.3914H89.1634L85.7508 30.7792L86.8263 30.9239L83.4757 35.3914H80.6215Z" fill="#1D1D1D"/>
</svg>
