<svg xmlns="http://www.w3.org/2000/svg" width="100" height="100" viewBox="0 0 48 48">
  <linearGradient id="a" x1="21.861" x2="25.703" y1="8.237" y2="36.552" gradientUnits="userSpaceOnUse">
    <stop offset="0" stop-color="#00c1e0"/>
    <stop offset="1" stop-color="#009bb8"/>
  </linearGradient>
  <path fill="url(#a)" d="M24 9.604q-8.383 0-11.276 7.318c-.2.505.417.92.816.551q3.053-2.822 6.86-1.871c1.826.456 3.131 1.781 4.576 3.247C27.328 21.236 30.051 24 36 24q8.384 0 11.276-7.319c.2-.505-.417-.92-.816-.551q-3.053 2.823-6.86 1.872c-1.825-.456-3.13-1.781-4.575-3.247C32.672 12.367 29.948 9.604 24 9.604M12 24Q3.616 24 .724 31.319c-.2.505.417.92.816.551q3.053-2.823 6.86-1.871c1.825.457 3.13 1.781 4.575 3.246 2.353 2.388 5.077 5.152 11.025 5.152q8.384 0 11.276-7.319c.2-.505-.417-.92-.816-.551q-3.053 2.823-6.86 1.871c-1.826-.456-3.131-1.781-4.576-3.246C20.672 26.764 17.949 24 12 24"/>
</svg>
